<?xml version="1.0" encoding="UTF-8"?>
<svg id="Layer_1" xmlns="http://www.w3.org/2000/svg" version="1.1" viewBox="0 0 24 24">
  <!-- Generator: Adobe Illustrator 30.1.0, SVG Export Plug-In . SVG Version: 2.1.1 Build 136)  -->
  <defs>
    <style>
      .st0 {
        fill: #ffde17;
      }

      .st1 {
        fill: #fff;
      }
    </style>
  </defs>
  <circle class="st0" cx="12.18" cy="12" r="10.82"/>
  <g>
    <path class="st1" d="M9.38,14.73l2.94-.04c.29,0,.52-.22.53-.48,0-.25-.19-.46-.47-.55h-3.33l-1.19-4.06,5.76-.02c.34,0,.59-.2.59-.51s-.24-.55-.59-.55h-6.07c-.22-.7-.42-1.32-.6-2.07h11.13l-1.06,3.64h-6.2c-.31.01-.49.27-.5.52-.01.27.19.52.5.52h5.89l-2.03,6.87h-4.32l-.97-3.28h0Z"/>
    <path class="st1" d="M13.26,5.4c-.53.03-1,.03-1.51,0v-1.96c0-.41.41-.67.76-.66.4,0,.75.29.75.74v1.9-.02Z"/>
    <path class="st1" d="M13.26,19.17c-.09.85.41,2.62-.78,2.57-.35-.02-.68-.22-.72-.61-.05-.65-.01-1.3,0-1.96.53-.02.98-.03,1.5,0Z"/>
  </g>
</svg>