<?xml version="1.0" encoding="UTF-8"?>
<svg id="Layer_1" xmlns="http://www.w3.org/2000/svg" version="1.1" viewBox="0 0 177 24">
  <!-- Generator: Adobe Illustrator 30.1.0, SVG Export Plug-In . SVG Version: 2.1.1 Build 136)  -->
  <defs>
    <style>
      .st0 {
        fill: #070808;
      }

      .st1 {
        fill: #ffde17;
      }

      .st2 {
        fill: #52525c;
      }
    </style>
  </defs>
  <g>
    <path class="st1" d="M8.38,15.16l3.75-.05c.37,0,.67-.27.68-.61.01-.32-.25-.58-.6-.7l-4.25-.02-1.52-5.16,7.34-.03c.43,0,.76-.25.75-.65s-.3-.71-.75-.71h-7.73c-.28-.89-.54-1.69-.77-2.64h14.19s-1.36,4.63-1.36,4.63h-7.9c-.4.01-.62.34-.64.66-.02.35.24.66.64.67l7.51.02-2.59,8.75h-5.51s-1.24-4.18-1.24-4.18Z"/>
    <path class="st1" d="M13.34,3.27c-.68.03-1.28.04-1.93,0V.76c0-.53.52-.85.97-.85.51,0,.96.36.96.94v2.42Z"/>
    <path class="st1" d="M13.33,20.82c-.11,1.08.52,3.34-.99,3.27-.45-.02-.87-.28-.91-.77-.06-.83-.02-1.65-.01-2.5.67-.03,1.25-.03,1.91,0Z"/>
  </g>
  <g>
    <path class="st0" d="M24.65,14.8l4.21-.26c.09.68.28,1.2.56,1.56.46.58,1.11.87,1.95.87.63,0,1.12-.15,1.46-.44.34-.3.51-.64.51-1.03,0-.37-.16-.7-.49-1-.33-.29-1.08-.57-2.26-.83-1.94-.44-3.32-1.01-4.15-1.74-.83-.72-1.25-1.64-1.25-2.76,0-.74.21-1.43.64-2.08.43-.65,1.07-1.17,1.92-1.54s2.03-.56,3.52-.56c1.83,0,3.22.34,4.18,1.02s1.53,1.76,1.71,3.24l-4.17.24c-.11-.64-.34-1.11-.7-1.41-.35-.29-.84-.44-1.47-.44-.51,0-.9.11-1.16.33-.26.22-.39.48-.39.79,0,.23.11.43.32.61.21.19.7.36,1.48.53,1.93.42,3.32.84,4.15,1.26.84.43,1.44.96,1.82,1.59.38.63.57,1.34.57,2.12,0,.92-.25,1.76-.76,2.54s-1.22,1.36-2.13,1.76c-.91.4-2.06.6-3.44.6-2.43,0-4.12-.47-5.05-1.41-.94-.94-1.47-2.13-1.59-3.57Z"/>
    <path class="st0" d="M39.88,5.23h4.42v5.01h4.83v-5.01h4.44v14.31h-4.44v-5.79h-4.83v5.79h-4.42V5.23Z"/>
    <path class="st0" d="M65.3,17.17h-5.02l-.7,2.36h-4.51l5.38-14.31h4.82l5.38,14.31h-4.63l-.72-2.36ZM64.38,14.08l-1.58-5.14-1.56,5.14h3.14Z"/>
    <path class="st0" d="M72,5.23h5.81l2.24,8.7,2.23-8.7h5.81v14.31h-3.62v-10.91l-2.79,10.91h-3.28l-2.78-10.91v10.91h-3.62V5.23Z"/>
    <path class="st0" d="M99.7,17.17h-5.02l-.7,2.36h-4.51l5.38-14.31h4.82l5.38,14.31h-4.63l-.71-2.36ZM98.79,14.08l-1.58-5.14-1.56,5.14h3.14Z"/>
  </g>
  <g>
    <path class="st2" d="M105.52,4.71h13.75v3.61h-4.61v11.02h-4.52v-11.02h-4.61v-3.61Z"/>
    <path class="st2" d="M120.2,8.75h3.8v1.74c.37-.75.74-1.27,1.13-1.55.39-.28.87-.42,1.44-.42s1.25.19,1.97.56l-1.26,2.89c-.48-.2-.86-.3-1.14-.3-.53,0-.95.22-1.24.66-.42.62-.63,1.78-.63,3.47v3.55h-4.08v-10.6Z"/>
    <path class="st2" d="M133.29,12.18l-3.88-.41c.15-.68.36-1.21.63-1.6.28-.39.67-.73,1.19-1.01.37-.21.88-.37,1.54-.48.65-.11,1.36-.17,2.12-.17,1.22,0,2.2.07,2.93.2s1.35.42,1.85.85c.35.3.62.72.82,1.27.2.55.3,1.07.3,1.57v4.68c0,.5.03.89.09,1.17s.2.64.41,1.08h-3.81c-.15-.27-.25-.48-.3-.62-.05-.14-.09-.37-.14-.67-.53.51-1.06.88-1.59,1.1-.72.29-1.55.44-2.51.44-1.26,0-2.22-.29-2.88-.88s-.98-1.31-.98-2.17c0-.81.24-1.47.71-1.99.47-.52,1.34-.91,2.62-1.16,1.52-.31,2.51-.52,2.96-.64.45-.12.93-.28,1.44-.48,0-.5-.1-.85-.31-1.05-.21-.2-.57-.3-1.09-.3-.67,0-1.17.11-1.5.32-.26.17-.47.48-.63.94ZM136.81,14.32c-.56.2-1.14.38-1.75.53-.83.22-1.35.44-1.57.65-.23.22-.34.47-.34.75,0,.32.11.58.33.78.22.2.55.3.98.3s.87-.11,1.26-.33c.39-.22.67-.49.83-.8.16-.32.25-.73.25-1.23v-.65Z"/>
    <path class="st2" d="M154.38,4.71v14.63h-3.8v-1.57c-.53.67-1.02,1.12-1.46,1.35-.59.31-1.24.46-1.96.46-1.44,0-2.55-.55-3.31-1.65-.76-1.1-1.14-2.43-1.14-4,0-1.76.42-3.1,1.26-4.03s1.91-1.4,3.21-1.4c.63,0,1.21.11,1.72.32s.97.53,1.37.96v-5.07h4.1ZM150.31,14.02c0-.83-.18-1.45-.53-1.86s-.8-.61-1.34-.61c-.47,0-.87.2-1.19.59s-.48,1.05-.48,1.98c0,.87.17,1.5.49,1.9s.74.6,1.22.6c.52,0,.95-.2,1.3-.61s.52-1.07.52-1.99Z"/>
    <path class="st2" d="M168.62,15.06h-8.14c.07.65.25,1.14.53,1.46.39.46.91.69,1.54.69.4,0,.78-.1,1.14-.3.22-.13.46-.35.71-.67l4,.37c-.61,1.06-1.35,1.83-2.22,2.29-.87.46-2.11.69-3.72.69-1.4,0-2.51-.2-3.31-.59-.81-.4-1.47-1.02-2-1.89-.53-.86-.79-1.88-.79-3.04,0-1.66.53-3,1.59-4.02s2.53-1.54,4.4-1.54c1.52,0,2.71.23,3.59.69.88.46,1.55,1.12,2.01,2,.46.87.69,2.01.69,3.4v.46ZM164.49,13.11c-.08-.78-.29-1.35-.63-1.69s-.79-.51-1.35-.51c-.65,0-1.16.26-1.55.77-.25.32-.4.79-.47,1.43h4Z"/>
  </g>
</svg>